# Blender v2.79 (sub 0) OBJ File: 'Rock3.blend'
# www.blender.org
o Icosphere.023_Icosphere.035
v -0.234155 -0.238815 -0.246665
v 0.346938 -0.079220 0.234506
v -0.580450 -0.129211 0.503412
v -1.358326 -0.078563 -0.165269
v -0.703528 -0.188926 -1.024666
v 0.482624 -0.041648 -0.609266
v -0.130401 0.572481 0.582051
v -0.947930 0.786582 0.234902
v -1.064608 0.961349 -0.689143
v 0.107693 0.864266 -0.938528
v 0.324396 0.662880 -0.139591
v -0.306698 1.326192 -0.170112
v -0.445139 -0.199904 0.197682
v 0.214910 -0.177794 0.078576
v 0.110741 -0.219794 0.531651
v 0.635724 -0.067271 -0.186553
v 0.241160 -0.132675 -0.473262
v -0.902607 -0.146528 -0.222122
v -1.098817 -0.136394 0.210788
v -0.516223 -0.191168 -0.696460
v -1.079767 -0.088239 -0.675183
v 0.038444 -0.159047 -0.948479
v 0.520047 0.407005 0.084676
v 0.579360 0.573850 -0.397538
v -0.363582 0.248637 0.658877
v 0.146365 0.433460 0.376599
v -1.038034 0.470074 0.117534
v -0.816505 0.341045 0.436916
v -0.963641 0.409204 -0.979815
v -1.214684 0.712957 -0.366514
v 0.446756 0.378403 -0.812954
v -0.416804 0.250750 -1.060608
v 0.005217 0.627491 0.280408
v -0.388308 0.702622 0.507833
v -1.182480 1.061415 -0.167304
v -0.676468 1.005202 -0.972680
v 0.426086 0.813953 -0.617537
v -0.397676 1.012295 0.268957
v 0.118769 1.053216 -0.185665
v -0.753482 1.159234 0.068252
v -0.828253 1.078804 -0.532922
v -0.085888 1.343479 -0.596285
vt 0.257967 0.445230
vt 0.256579 0.503281
vt 0.219697 0.454106
vt 0.253072 0.525373
vt 0.293752 0.525373
vt 0.228293 0.391951
vt 0.276122 0.396024
vt 0.294901 0.474094
vt 0.114775 0.359842
vt 0.155716 0.358441
vt 0.133393 0.395590
vt 0.150412 0.628372
vt 0.157216 0.697607
vt 0.118239 0.652418
vt 0.157216 0.528055
vt 0.155655 0.567284
vt 0.109567 0.565538
vt 0.402313 0.691034
vt 0.365134 0.680712
vt 0.392523 0.630122
vt 0.213516 0.525373
vt 0.253048 0.530537
vt 0.205064 0.565810
vt 0.097668 0.408902
vt 0.114518 0.599540
vt 0.098382 0.529221
vt 0.309100 0.557951
vt 0.309100 0.626164
vt 0.274751 0.587898
vt 0.177907 0.382306
vt 0.191102 0.425644
vt 0.169008 0.421511
vt 0.072196 0.429034
vt 0.098579 0.435776
vt 0.082964 0.490090
vt 0.082808 0.576270
vt 0.085054 0.641342
vt 0.056314 0.586648
vt 0.369289 0.571552
vt 0.327266 0.558703
vt 0.365264 0.556975
vt 0.216016 0.625553
vt 0.269429 0.671291
vt 0.211927 0.681401
vt 0.140798 0.434634
vt 0.177901 0.456798
vt 0.135977 0.479757
vt 0.155716 0.528055
vt 0.117323 0.525147
vt 0.191102 0.609457
vt 0.393405 0.525373
vt 0.355014 0.525924
vt 0.402313 0.566373
vt 0.323225 0.544531
vt 0.164265 0.528055
vt 0.174859 0.578598
vt 0.157216 0.578598
vt 0.067760 0.536988
vt 0.081688 0.528055
vt 0.064645 0.629663
vt 0.066487 0.456260
vt 0.340154 0.596337
vt 0.309100 0.617612
vt 0.094116 0.670144
vt 0.318836 0.678300
vt 0.108460 0.690857
vt 0.056314 0.412375
vt 0.084212 0.351608
vt 0.317364 0.428722
vt 0.315470 0.488227
vt 0.289809 0.361076
vt 0.251350 0.351608
vt 0.205454 0.358066
vt 0.191102 0.400870
vt 0.194290 0.461863
vt 0.221465 0.520178
vn 0.0535 -0.9922 0.1123
vn 0.3844 -0.8919 0.2383
vn -0.1359 -0.9905 0.0222
vn -0.1374 -0.9903 -0.0187
vn 0.1296 -0.9743 -0.1845
vn 0.8203 -0.1197 0.5592
vn -0.0826 -0.3383 0.9374
vn -0.7989 0.1688 0.5773
vn -0.6940 -0.2512 -0.6747
vn 0.6279 -0.2955 -0.7200
vn 0.6165 0.0230 0.7870
vn -0.4546 -0.1031 0.8847
vn -0.8537 0.2684 0.4462
vn -0.1427 0.0122 -0.9897
vn 0.9583 -0.0542 -0.2804
vn 0.6260 0.6675 0.4032
vn -0.3108 0.5184 0.7967
vn -0.2973 0.9230 -0.2442
vn 0.1440 0.6130 -0.7769
vn 0.8209 0.4706 0.3234
vn 0.5224 0.7970 0.3030
vn 0.7155 0.6866 0.1288
vn 0.6088 0.6090 -0.5084
vn -0.3431 0.9288 -0.1401
vn -0.3437 0.8997 -0.2692
vn -0.2902 0.9225 -0.2546
vn -0.3841 0.9202 -0.0753
vn -0.1626 0.9804 -0.1109
vn -0.4938 0.5565 0.6682
vn 0.0071 0.8128 0.5825
vn -0.1938 0.5955 0.7796
vn 0.0812 0.6103 0.7880
vn 0.4554 0.6769 0.5783
vn 0.5202 0.5637 0.6416
vn 0.6988 0.4351 0.5677
vn 0.6067 0.7117 0.3541
vn 0.8959 0.2165 -0.3879
vn 0.6971 0.3208 -0.6412
vn 0.0679 0.1385 -0.9880
vn -0.1253 0.0722 -0.9895
vn -0.5855 0.2912 -0.7565
vn -0.9379 0.2334 -0.2566
vn -0.9490 -0.0857 0.3033
vn -0.8488 0.0463 0.5267
vn -0.3855 0.2843 0.8778
vn -0.3776 0.2737 0.8846
vn -0.1164 0.3078 0.9443
vn 0.6323 0.6606 0.4047
vn 0.4970 0.6478 0.5774
vn 0.4892 0.7557 0.4354
vn 0.2822 -0.0506 -0.9580
vn 0.2704 0.0372 -0.9620
vn 0.1070 -0.1501 -0.9829
vn -0.9175 0.0405 -0.3956
vn -0.9275 -0.0123 -0.3736
vn -0.8767 0.0372 -0.4796
vn -0.8178 0.0195 0.5751
vn -0.7758 0.1711 0.6073
vn -0.4866 -0.1220 0.8650
vn 0.5258 -0.1814 0.8310
vn 0.4229 0.1874 0.8866
vn 0.7509 0.1135 0.6506
vn 0.5895 0.7382 0.3279
vn 0.9755 0.1413 0.1689
vn 0.9392 -0.0300 -0.3420
vn 0.3116 -0.9468 -0.0804
vn 0.0694 -0.9973 0.0257
vn 0.0435 -0.9986 -0.0316
vn -0.1755 -0.9800 0.0934
vn -0.1814 -0.9818 -0.0554
vn -0.1552 -0.9857 -0.0661
vn -0.1530 -0.9871 -0.0462
vn -0.0971 -0.9951 -0.0207
vn -0.0913 -0.9783 0.1858
vn 0.2705 -0.9501 -0.1556
vn 0.2122 -0.9748 -0.0696
vn 0.1849 -0.9802 -0.0713
vn -0.1348 -0.9768 0.1662
vn 0.0174 -0.9959 -0.0883
vn 0.5578 -0.8284 0.0514
s off
f 1/1/1 14/2/1 13/3/1
f 2/4/2 14/2/2 16/5/2
f 1/1/3 13/3/3 18/6/3
f 1/1/4 18/6/4 20/7/4
f 1/1/5 20/7/5 17/8/5
f 2/9/6 16/10/6 23/11/6
f 3/12/7 15/13/7 25/14/7
f 4/15/8 19/16/8 27/17/8
f 5/18/9 21/19/9 29/20/9
f 6/21/10 22/22/10 31/23/10
f 2/9/11 23/11/11 26/24/11
f 3/12/12 25/14/12 28/25/12
f 4/15/13 27/17/13 30/26/13
f 5/27/14 29/28/14 32/29/14
f 6/30/15 31/31/15 24/32/15
f 7/33/16 33/34/16 38/35/16
f 8/36/17 34/37/17 40/38/17
f 9/39/18 35/40/18 41/41/18
f 10/42/19 36/43/19 42/44/19
f 11/45/20 37/46/20 39/47/20
f 39/47/21 42/48/21 12/49/21
f 39/47/22 37/46/22 42/48/22
f 37/50/23 10/42/23 42/44/23
f 42/51/24 41/41/24 12/52/24
f 42/51/25 36/53/25 41/41/25
f 36/53/26 9/39/26 41/41/26
f 41/41/27 40/54/27 12/52/27
f 41/55/28 35/56/28 40/57/28
f 35/58/29 8/36/29 40/38/29
f 40/59/30 38/35/30 12/49/30
f 40/38/31 34/37/31 38/60/31
f 34/61/32 7/33/32 38/35/32
f 38/35/33 39/47/33 12/49/33
f 38/35/34 33/34/34 39/47/34
f 33/34/35 11/45/35 39/47/35
f 24/32/36 37/46/36 11/45/36
f 24/32/37 31/31/37 37/46/37
f 31/23/38 10/42/38 37/50/38
f 32/29/39 36/43/39 10/42/39
f 32/29/40 29/28/40 36/43/40
f 29/20/41 9/39/41 36/53/41
f 30/62/42 35/40/42 9/39/42
f 30/62/43 27/63/43 35/40/43
f 27/17/44 8/36/44 35/58/44
f 28/25/45 34/37/45 8/36/45
f 28/25/46 25/14/46 34/37/46
f 25/14/47 7/64/47 34/37/47
f 26/24/48 33/34/48 7/33/48
f 26/24/49 23/11/49 33/34/49
f 23/11/50 11/45/50 33/34/50
f 31/23/51 32/29/51 10/42/51
f 31/23/52 22/22/52 32/29/52
f 22/22/53 5/27/53 32/29/53
f 29/20/54 30/62/54 9/39/54
f 29/20/55 21/19/55 30/62/55
f 21/19/56 4/65/56 30/62/56
f 27/17/57 28/25/57 8/36/57
f 27/17/58 19/16/58 28/25/58
f 19/16/59 3/12/59 28/25/59
f 25/14/60 26/66/60 7/64/60
f 25/67/61 15/68/61 26/24/61
f 15/68/62 2/9/62 26/24/62
f 23/11/63 24/32/63 11/45/63
f 23/11/64 16/10/64 24/32/64
f 16/10/65 6/30/65 24/32/65
f 17/8/66 22/69/66 6/70/66
f 17/8/67 20/7/67 22/69/67
f 20/7/68 5/71/68 22/69/68
f 20/7/69 21/72/69 5/71/69
f 20/7/70 18/6/70 21/72/70
f 18/6/71 4/73/71 21/72/71
f 18/6/72 19/74/72 4/73/72
f 18/6/73 13/3/73 19/74/73
f 13/3/74 3/75/74 19/74/74
f 16/5/75 17/8/75 6/70/75
f 16/5/76 14/2/76 17/8/76
f 14/2/77 1/1/77 17/8/77
f 13/3/78 15/76/78 3/75/78
f 13/3/79 14/2/79 15/76/79
f 14/2/80 2/4/80 15/76/80
