# Blender v2.79 (sub 0) OBJ File: 'Grass.blend'
# www.blender.org
o Cube.006_Cube.007
v 0.135560 -0.254784 0.185125
v 0.609229 0.815202 -0.069806
v 0.418161 -0.241945 0.021242
v 0.683932 0.730647 -0.104865
v 0.201819 -0.253488 0.322454
v 0.629205 0.817541 -0.030649
v 0.486769 -0.239344 0.155212
v 0.703672 0.733422 -0.066401
v 0.384504 0.561790 0.092216
v 0.461860 0.390254 0.045290
v 0.505559 0.391324 0.113561
v 0.432152 0.564081 0.166293
v -0.126106 -0.115539 0.432218
v 0.431448 0.680225 0.988937
v 0.129046 -0.113048 0.636612
v 0.401012 0.607708 0.900767
v -0.230154 -0.112753 0.543652
v 0.391783 0.675473 1.007427
v 0.029016 -0.109088 0.749040
v 0.362187 0.602877 0.919373
v -0.007010 0.505181 0.525815
v 0.105732 0.392066 0.635835
v 0.052220 0.397760 0.696463
v -0.065359 0.512464 0.591429
v 0.200438 0.789371 0.727330
v 0.242506 0.646839 0.722181
v 0.203162 0.634321 0.764229
v 0.158802 0.776403 0.771748
v -0.328610 -0.167670 0.438184
v -0.819776 0.902316 0.657518
v -0.622519 -0.154831 0.580798
v -0.896859 0.817761 0.686978
v -0.384569 -0.166373 0.296346
v -0.836812 0.904656 0.616996
v -0.681068 -0.152229 0.442137
v -0.913712 0.820537 0.647164
v -0.448520 0.457528 0.492845
v -0.599069 0.349321 0.549740
v -0.630737 0.354293 0.475281
v -0.482578 0.464016 0.411845
v -0.630737 0.277470 0.475281
v -0.084949 -0.231498 0.013090
v -0.305992 0.974972 -0.337131
v -0.102570 -0.085392 0.305028
v -0.285438 0.998242 -0.265058
v -0.236134 -0.238026 -0.005664
v -0.333034 0.968776 -0.327899
v -0.252226 -0.089167 0.289206
v -0.312172 0.992344 -0.256194
v -0.160104 0.232768 -0.076134
v -0.183626 0.199830 0.113529
v -0.264089 0.201144 0.103742
v -0.247441 0.235038 -0.087538
v -0.135612 0.679106 -0.113145
v -0.132895 0.678845 0.040319
v -0.195168 0.675191 0.041679
v -0.201748 0.675737 -0.112369
vt 0.136254 0.320295
vt 0.121770 0.253471
vt 0.136254 0.221520
vt 0.475800 0.206602
vt 0.460915 0.123803
vt 0.475800 0.108135
vt 0.265638 0.199682
vt 0.280777 0.139370
vt 0.280777 0.229940
vt 0.444543 0.222913
vt 0.460915 0.147373
vt 0.460915 0.239286
vt 0.327933 0.441735
vt 0.300824 0.339908
vt 0.327933 0.316658
vt 0.458594 0.114599
vt 0.452811 0.140832
vt 0.450619 0.108135
vt 0.427452 0.430259
vt 0.451074 0.336770
vt 0.451074 0.446073
vt 0.231591 0.215596
vt 0.252767 0.339613
vt 0.086181 0.258927
vt 0.088266 0.229847
vt 0.105043 0.108135
vt 0.771042 0.167951
vt 0.864667 0.263792
vt 0.782061 0.194694
vt 0.765422 0.136355
vt 0.714181 0.063288
vt 0.791892 0.137577
vt 0.818588 0.147199
vt 0.884352 0.246851
vt 0.768521 0.141608
vt 0.837924 0.334534
vt 0.893606 0.444973
vt 0.770075 0.329545
vt 0.690115 0.057203
vt 0.705331 0.036668
vt 0.654298 0.222638
vt 0.587500 0.227072
vt 0.547622 0.173677
vt 0.660890 0.220938
vt 0.737671 0.207254
vt 0.790535 0.307523
vt 0.608355 0.179953
vt 0.673287 0.176269
vt 0.676257 0.252921
vt 0.690235 0.350406
vt 0.669986 0.082927
vt 0.667135 0.045040
vt 0.638353 0.114980
vt 0.835684 0.190694
vt 0.872068 0.191579
vt 0.778694 0.338211
vt 0.714305 0.312976
vt 0.661734 0.826014
vt 0.649257 0.747117
vt 0.661734 0.697002
vt 0.882923 0.924403
vt 0.872032 0.830322
vt 0.882923 0.821436
vt 0.687167 0.750796
vt 0.700227 0.676964
vt 0.700227 0.799550
vt 0.820848 0.799297
vt 0.827887 0.680402
vt 0.832995 0.808271
vt 0.853542 0.922603
vt 0.832995 0.836838
vt 0.853542 0.821436
vt 0.825716 0.656336
vt 0.821807 0.675926
vt 0.819735 0.651895
vt 0.811953 0.841648
vt 0.832995 0.856058
vt 0.661734 0.738346
vt 0.677480 0.837919
vt 0.586404 0.919366
vt 0.600967 0.905988
vt 0.600967 0.935036
vt 0.625600 0.751813
vt 0.640665 0.651895
vt 0.188198 0.739024
vt 0.240897 0.819480
vt 0.156129 0.744517
vt 0.165283 0.777774
vt 0.434797 0.682667
vt 0.375535 0.643072
vt 0.375857 0.609672
vt 0.429149 0.699411
vt 0.338184 0.637421
vt 0.086657 0.922474
vt 0.084875 0.820714
vt 0.139980 0.888958
vt 0.243136 0.834033
vt 0.258969 0.826670
vt 0.261181 0.841398
vt 0.201191 0.850440
vt 0.146223 0.837168
vt 0.146208 0.782346
vt 0.283786 0.813071
vt 0.264739 0.833815
vt 0.279769 0.772013
vt 0.232358 0.730258
vt 0.241278 0.685355
vt 0.293826 0.750433
vt 0.249737 0.796263
vt 0.135010 0.876492
vt 0.177629 0.876782
vt 0.333542 0.838607
vt 0.283708 0.855302
vt 0.310790 0.810430
vt 0.320218 0.773027
vt 0.355560 0.816796
vt 0.307929 0.584556
vt 0.277995 0.582189
vt 0.280626 0.550743
vt 0.126957 0.351758
vt 0.467904 0.213377
vt 0.270251 0.108135
vt 0.301130 0.466093
vt 0.437927 0.324725
vt 0.120211 0.272035
vt 0.891758 0.269849
vt 0.963621 0.451316
vt 0.680792 0.030341
vt 0.645002 0.154564
vt 0.608669 0.107970
vt 0.785863 0.366449
vt 0.654063 0.851472
vt 0.877104 0.929127
vt 0.692236 0.651895
vt 0.833231 0.938943
vt 0.593142 0.897643
vt 0.444645 0.699833
vt 0.031668 0.855307
vt 0.203868 0.695344
vt 0.207159 0.762506
vt 0.111001 0.846606
vt 0.324526 0.870268
vt 0.285378 0.767484
vt 0.306687 0.599279
vn -0.5635 -0.0282 -0.8257
vn 0.6662 -0.6185 -0.4167
vn 0.6679 0.0573 0.7420
vn -0.5788 0.7368 0.3495
vn 0.0397 -0.9992 -0.0097
vn 0.6143 0.6992 -0.3657
vn -0.8579 0.3083 0.4110
vn 0.5052 0.0224 0.8627
vn 0.8896 -0.0442 -0.4547
vn -0.5028 0.0551 -0.8627
vn 0.7512 0.2439 -0.6133
vn 0.0469 -0.9685 -0.2444
vn -0.7007 -0.2540 0.6667
vn 0.0665 0.9393 0.3365
vn -0.0108 -0.9996 0.0256
vn 0.3479 -0.7774 0.5240
vn -0.7071 0.2373 -0.6661
vn -0.6187 0.1036 0.7788
vn 0.7473 0.0346 0.6636
vn 0.6252 -0.0023 -0.7804
vn -0.4654 0.7336 -0.4953
vn -0.6487 0.0314 0.7604
vn 0.6001 -0.5495 0.5813
vn 0.6977 -0.0013 -0.7164
vn 0.3732 -0.0318 0.9272
vn -0.7676 -0.5724 0.2882
vn -0.4350 0.0683 -0.8978
vn 0.6996 0.6729 -0.2403
vn -0.0404 -0.9992 0.0068
vn -0.6396 0.6992 0.3194
vn 0.9109 0.2060 -0.3575
vn -0.4355 0.0963 -0.8950
vn -0.9188 0.0658 0.3892
vn 0.4367 0.0051 0.8996
vn 0.9079 0.4189 -0.0154
vn -0.0243 0.6848 0.7283
vn -0.9489 -0.3130 0.0394
vn 0.0209 -0.5958 -0.8029
vn -0.0168 -0.8945 0.4467
vn -0.2891 0.9312 -0.2219
vn 0.1285 -0.1671 -0.9775
vn -0.9980 -0.0571 -0.0256
vn -0.1022 0.5343 0.8391
vn 0.9700 0.2358 -0.0594
vn 0.1274 -0.0690 -0.9895
vn -0.9888 0.1356 -0.0620
vn -0.1171 0.1456 0.9824
vn 0.9903 -0.0885 0.1075
vn -0.4856 -0.0677 -0.8716
vn 0.7302 -0.5973 -0.3316
vn 0.5404 0.1248 0.8321
vn -0.6383 0.7160 0.2828
vn 0.0469 -0.9989 -0.0046
vn 0.6209 0.6972 -0.3584
vn -0.8007 0.3221 0.5051
vn 0.6321 0.0323 0.7742
vn 0.8411 -0.0606 -0.5374
vn -0.4117 0.0630 -0.9091
vn 0.7713 0.3346 -0.5415
vn 0.0133 -0.9742 -0.2252
vn -0.7338 -0.3822 0.5617
vn 0.0495 0.9366 0.3470
vn -0.0033 -0.9998 0.0220
vn 0.3384 -0.7807 0.5253
vn -0.7129 0.2363 -0.6602
vn -0.6006 0.1097 0.7920
vn 0.7509 0.0357 0.6594
vn 0.7143 0.0319 -0.6991
vn -0.6091 0.7038 -0.3655
vn -0.2368 -0.1249 0.9635
vn 0.6903 -0.5355 0.4865
vn 0.3389 0.1337 -0.9313
vn 0.3828 -0.0272 0.9234
vn -0.7689 -0.5720 0.2856
vn -0.4303 0.0706 -0.8999
vn 0.6933 0.6749 -0.2525
vn -0.0471 -0.9989 0.0011
vn -0.6456 0.6972 0.3117
vn 0.9075 0.2080 -0.3649
vn -0.4550 0.1031 -0.8845
vn -0.9165 0.0669 0.3943
vn 0.3260 0.0430 0.9444
vn 0.9028 0.2611 -0.3418
vn 0.0818 0.6982 0.7112
vn -0.9285 -0.1750 0.3277
vn -0.1212 -0.6228 -0.7729
vn -0.0250 -0.8930 0.4494
vn -0.2796 0.9341 -0.2218
vn 0.1234 -0.1664 -0.9783
vn -0.9948 -0.0400 -0.0937
vn -0.0936 0.5333 0.8407
vn 0.9705 0.1865 0.1527
vn -0.0075 -0.0822 -0.9966
vn -0.9935 0.1054 0.0428
vn 0.0128 0.1497 0.9886
vn 0.9983 -0.0562 -0.0178
s off
f 2/1/1 10/2/1 9/3/1
f 4/4/2 11/5/2 10/6/2
f 11/7/3 6/8/3 12/9/3
f 12/10/4 2/11/4 9/12/4
f 3/13/5 5/14/5 1/15/5
f 4/16/6 6/17/6 8/18/6
f 5/19/7 9/20/7 1/21/7
f 7/22/8 12/9/8 5/23/8
f 10/2/9 7/24/9 3/25/9
f 9/3/10 3/25/10 1/26/10
f 25/27/11 16/28/11 26/29/11
f 26/30/12 20/31/12 27/32/12
f 20/31/13 28/33/13 27/32/13
f 18/34/14 25/27/14 28/35/14
f 19/36/15 13/37/15 15/38/15
f 16/39/16 18/40/16 20/31/16
f 24/41/17 13/42/17 17/43/17
f 19/44/18 24/45/18 17/46/18
f 15/47/19 23/48/19 19/44/19
f 21/49/20 15/50/20 13/42/20
f 28/35/21 21/51/21 24/52/21
f 23/48/22 28/53/22 24/45/22
f 22/54/23 27/32/23 23/55/23
f 25/56/24 22/57/24 21/49/24
f 30/58/25 38/59/25 37/60/25
f 32/61/26 39/62/26 38/63/26
f 39/64/27 34/65/27 40/66/27
f 40/67/28 30/68/28 37/69/28
f 31/70/29 33/71/29 29/72/29
f 32/73/30 34/74/30 36/75/30
f 33/76/31 37/69/31 29/77/31
f 35/78/32 40/66/32 33/79/32
f 31/80/33 39/81/33 35/82/33
f 37/60/34 31/83/34 29/84/34
f 54/85/35 45/86/35 55/87/35
f 45/86/36 56/88/36 55/87/36
f 49/89/37 57/90/37 56/91/37
f 57/90/38 43/92/38 54/93/38
f 44/94/39 46/95/39 42/96/39
f 49/97/40 43/98/40 47/99/40
f 46/100/41 50/101/41 42/102/41
f 52/103/42 46/104/42 48/105/42
f 51/106/43 48/107/43 44/108/43
f 42/109/44 51/106/44 44/108/44
f 57/110/45 50/101/45 53/111/45
f 56/112/46 53/113/46 52/103/46
f 51/114/47 56/115/47 52/116/47
f 50/117/48 55/118/48 51/119/48
f 2/1/49 4/120/49 10/2/49
f 4/4/50 8/121/50 11/5/50
f 11/7/51 8/122/51 6/8/51
f 12/10/52 6/17/52 2/11/52
f 3/13/53 7/123/53 5/14/53
f 4/16/54 2/11/54 6/17/54
f 5/19/55 12/124/55 9/20/55
f 7/22/56 11/7/56 12/9/56
f 10/2/57 11/125/57 7/24/57
f 9/3/58 10/2/58 3/25/58
f 25/27/59 14/126/59 16/28/59
f 26/30/60 16/39/60 20/31/60
f 20/31/61 18/40/61 28/33/61
f 18/34/62 14/126/62 25/27/62
f 19/36/63 17/127/63 13/37/63
f 16/39/64 14/128/64 18/40/64
f 24/41/65 21/49/65 13/42/65
f 19/44/66 23/48/66 24/45/66
f 15/47/67 22/129/67 23/48/67
f 21/49/68 22/57/68 15/50/68
f 28/35/69 25/27/69 21/51/69
f 23/48/70 27/130/70 28/53/70
f 22/54/71 26/30/71 27/32/71
f 25/56/72 26/131/72 22/57/72
f 30/58/73 32/132/73 38/59/73
f 32/61/74 36/133/74 39/62/74
f 39/64/75 36/134/75 34/65/75
f 40/67/76 34/74/76 30/68/76
f 31/70/77 35/135/77 33/71/77
f 32/73/78 30/68/78 34/74/78
f 33/76/79 40/67/79 37/69/79
f 35/78/80 39/64/80 40/66/80
f 31/80/81 38/136/81 39/81/81
f 37/60/82 38/59/82 31/83/82
f 54/85/83 43/98/83 45/86/83
f 45/86/84 49/97/84 56/88/84
f 49/89/85 47/137/85 57/90/85
f 57/90/86 47/137/86 43/92/86
f 44/94/87 48/138/87 46/95/87
f 49/97/88 45/86/88 43/98/88
f 46/100/89 53/111/89 50/101/89
f 52/103/90 53/113/90 46/104/90
f 51/106/91 52/139/91 48/107/91
f 42/109/92 50/140/92 51/106/92
f 57/110/93 54/141/93 50/101/93
f 56/112/94 57/142/94 53/113/94
f 51/114/95 55/143/95 56/115/95
f 50/117/96 54/144/96 55/118/96
